<svg id="SH_Primary_FulCol_RGB" xmlns="http://www.w3.org/2000/svg" viewBox="0 0 632 137"><defs><style>.cls-1{fill:#11316e;}.cls-2{fill:#fff;}.cls-3{fill:#d70825;}</style></defs><path class="cls-1" d="M136.64062,68.5A67.78134,67.78134,0,0,0,87.09247,3.22165C77.389,6.54678,52.33362,15.13278,47.2038,16.89041c-3.65729,1.29639-4.0824,3.12885-4.0824,4.39417,0,1.26519.42511,3.09759,4.0824,4.394,4.82952,1.65478,27.322,9.36249,38.03515,13.03369L63.5639,46.13461,46.65576,40.343c-5.25854-1.80426-7.12634-5.07282-7.86365-7.80042a40.23406,40.23406,0,0,1-1.548-10.09692c-.00964-.29022-.01953-1.16107-.01953-1.16107s.00989-.87116.01953-1.16126a40.235,40.235,0,0,1,1.5481-10.097,10.89614,10.89614,0,0,1,1.18951-2.8194,67.77711,67.77711,0,0,0,10.70514,126.572c9.70477-3.32562,34.75732-11.91052,39.88678-13.66809,3.65722-1.29639,4.08233-3.12885,4.08233-4.39417,0-1.26513-.42511-3.09759-4.08233-4.394-4.82959-1.65478-27.322-9.36249-38.03522-13.03369l21.67505-7.4223,16.90814,5.79156c5.25855,1.80426,7.12634,5.07282,7.86365,7.80042a40.2313,40.2313,0,0,1,1.548,10.09692c.00965.29022.01953,1.16107.01953,1.16107s-.00988.87116-.01953,1.16126A40.23285,40.23285,0,0,1,98.98517,126.975a10.89747,10.89747,0,0,1-1.18842,2.81762A67.75969,67.75969,0,0,0,136.64062,68.5ZM98.72046,71.40512c-.96564,2.65576-2.52362,5.69818-7.78534,7.50244-.54828.18787-37.38556,12.81128-43.73132,14.9856-3.65729,1.29632-4.0824,3.12878-4.0824,4.3941,0,1.2652.42511,3.09766,4.0824,4.394,4.82952,1.65473,27.322,9.36243,38.03515,13.03364L63.5639,123.1373l-16.90814-5.79157c-5.25854-1.80432-7.12634-5.07281-7.86365-7.80047a40.23409,40.23409,0,0,1-1.548-10.09687c-.00964-.29022-.01953-1.16113-.01953-1.16113s.00989-.87115.01953-1.16125a40.23548,40.23548,0,0,1,1.5481-10.097c.7373-2.7276,2.605-5.996,7.8637-7.80041L90.41559,64.23984c3.71734-1.42114,7.03332-3.29657,9.127-8.9361A29.02348,29.02348,0,0,1,98.72046,71.40512Zm1.8128-31.52991a40.23271,40.23271,0,0,1-1.54809,10.097c-.73731,2.7276-2.605,5.996-7.86365,7.80041L47.36182,72.76138c-3.71735,1.42121-7.03333,3.29663-9.127,8.9361A29.02337,29.02337,0,0,1,39.057,65.5961c.96557-2.65576,2.52362-5.69818,7.78527-7.50244.54828-.18787,37.38562-12.81128,43.73139-14.98554C94.23089,41.81174,94.656,39.97928,94.656,38.714c0-1.2652-.42511-3.09766-4.08233-4.394-4.82959-1.65473-27.322-9.36243-38.03522-13.03363L74.2135,13.86392l16.90814,5.79163c5.25855,1.80426,7.12634,5.07281,7.86365,7.80041a40.23091,40.23091,0,0,1,1.548,10.09687c.00965.29028.01953,1.16113.01953,1.16113S100.54291,39.58511,100.53326,39.87521ZM223.2359,120.86173h-7.83545V100.03556H187.7735v20.82617h-7.83545V78.97013h7.83545v16.876h27.62695v-16.876h7.83545Zm39.42237-37.70215h-20.0337V96.684H262.254v4.18946h-19.6294v15.79883H266.1319v4.18945H234.78912V78.97013h27.86915Zm35.78613-4.18945,21.084,41.8916h-9.04785l-5.81592-12.32813H283.09625l-6.05859,12.32813H269.4444l23.02246-41.8916Zm4.3623,25.374a208.55911,208.55911,0,0,1-8.40136-19.15039h-.16114a168.5477,168.5477,0,0,1-8.96679,19.15039Zm21.56934-25.374H332.212v37.70215h23.50683v4.18945H324.376Zm41.76367,41.8916V83.15958H348.045V78.97013h44.10547v4.18945H373.97467v37.70215Zm78.11621,0H436.42V100.03556H408.793v20.82617h-7.83594V78.97013H408.793v16.876H436.42v-16.876h7.83594Zm54.044-34.76953a32.24127,32.24127,0,0,0-14.78321-3.65137c-13.97461,0-22.21484,7.4209-22.21484,17.23535,0,10.59278,9.85547,17.71485,22.21484,17.71485a31.82456,31.82456,0,0,0,14.29786-3.11231l3.07031,3.4707a42.17142,42.17142,0,0,1-17.77246,3.83008c-20.19434,0-30.45313-10.2334-30.45313-21.7832,0-10.53223,11.14746-21.54395,31.42285-21.54395,8.07813,0,13.73243,2.09473,17.44825,4.249ZM531.501,78.97013l21.084,41.8916h-9.04785l-5.81543-12.32813H516.15338l-6.05859,12.32813H502.501l23.02246-41.8916Zm4.3623,25.374A208.428,208.428,0,0,1,527.462,85.19376h-.16114a168.63219,168.63219,0,0,1-8.96679,19.15039Zm21.56934-25.374h16.15625c9.209,0,16.39844,3.53125,16.39844,10.77246,0,6.16406-4.03907,9.63476-9.45117,12.208l14.05566,17.834-7.916,1.79492-13.08691-18.07324h-8.32031v17.35547h-7.83594Zm7.83594,20.34765H569.712c10.0166,0,11.874-5.50586,11.874-9.03711,0-5.14648-4.3623-7.12109-9.6123-7.12109h-6.70508Zm62.12109-16.1582h-20.0332V96.684h19.62988v4.18946H607.35651v15.79883h23.50683v4.18945H599.52057V78.97013h27.86914ZM206.44635,22.60245c-2.74658-1.49609-6.38135-2.99219-9.77441-2.99219-5.6543,0-8.80469,2.45362-8.80469,5.68506,0,2.99219,3.47314,5.20655,10.74365,9.09668,7.75488,4.189,12.27832,8.01905,12.27832,13.40528,0,6.64257-8.48193,10.95166-17.52929,10.95166-5.41211,0-11.87452-1.43653-15.91358-4.36866L180.92,50.90909c3.312,1.73535,6.94727,3.65039,12.27832,3.65039,5.57422,0,9.85547-2.21386,9.85547-6.88183,0-5.2666-8.48193-8.67774-13.08642-11.19141-4.68506-2.69287-9.936-5.26611-9.936-11.19092,0-5.62549,7.35108-9.87451,16.15625-9.87451,5.897,0,10.82422,1.55615,13.97461,4.18945ZM217.3526,36.36661c0-11.72949,11.95557-20.9458,28.273-20.9458,16.31787,0,28.273,9.21631,28.273,20.9458,0,12.50781-10.82422,22.38233-28.273,22.38233C228.17731,58.74894,217.3526,48.87442,217.3526,36.36661Zm47.90235,0c0-7.83935-5.6543-16.75635-19.6294-16.75635s-19.62939,8.917-19.62939,16.75635c0,8.19873,5.0083,18.19287,19.62939,18.19287S265.255,44.56534,265.255,36.36661Zm67.04882,21.66406h-6.13965c-12.27832-10.8916-33.36181-29.6831-36.75439-33.33349h-.16162V58.03067h-6.4624V16.13907h5.81591c12.44043,10.89209,33.28125,29.20459,37.07813,33.39356h.16113V16.13907h6.46289Zm11.55274,0V16.13907h7.83594v41.8916Zm61.87889-34.77a32.24866,32.24866,0,0,0-14.78319-3.65039c-13.97461,0-22.21484,7.4209-22.21484,17.23536,0,10.59228,9.85547,17.71386,22.21484,17.71386a31.82509,31.82509,0,0,0,14.29785-3.11181l3.07031,3.47119a42.17135,42.17135,0,0,1-17.77246,3.83008c-20.19433,0-30.45312-10.2334-30.45312-21.7837,0-10.53271,11.14746-21.54443,31.42285-21.54443,8.07813,0,13.73242,2.09473,17.44824,4.249Z"/><path class="cls-2" d="M99.54254,55.30374a29.02348,29.02348,0,0,1-.82208,16.10138c-.96564,2.65576-2.52362,5.69818-7.78534,7.50244-.54828.18787-37.38556,12.81128-43.73132,14.9856-3.65729,1.29632-4.0824,3.12878-4.0824,4.3941,0,1.2652.42511,3.09766,4.0824,4.394,4.82952,1.65473,27.322,9.36243,38.03515,13.03364L63.5639,123.1373l-16.90814-5.79157c-5.25854-1.80432-7.12634-5.07281-7.86365-7.80047a40.23409,40.23409,0,0,1-1.548-10.09687c-.00964-.29022-.01953-1.16113-.01953-1.16113s.00989-.87115.01953-1.16125a40.23548,40.23548,0,0,1,1.5481-10.097c.7373-2.7276,2.605-5.996,7.8637-7.80041L90.41559,64.23984C94.13293,62.8187,97.44891,60.94327,99.54254,55.30374Zm.99072,61.57416c.00965-.2901.01953-1.16126.01953-1.16126s-.00988-.87085-.01953-1.16107a40.2313,40.2313,0,0,0-1.548-10.09692c-.73731-2.7276-2.6051-5.99616-7.86365-7.80042L74.2135,90.86667l-21.675,7.4223c10.7132,3.6712,33.20563,11.37891,38.03522,13.03369,3.65722,1.29639,4.08233,3.12885,4.08233,4.394,0,1.26532-.42511,3.09778-4.08233,4.39417-5.12946,1.75757-30.182,10.34247-39.88678,13.66809a68.0308,68.0308,0,0,0,47.10986-3.98633,10.89747,10.89747,0,0,0,1.18842-2.81762A40.23285,40.23285,0,0,0,100.53326,116.8779ZM37.24414,20.12332c-.00964.2901-.01953,1.16126-.01953,1.16126s.00989.87085.01953,1.16107a40.23406,40.23406,0,0,0,1.548,10.09692c.73731,2.7276,2.60511,5.99616,7.86365,7.80042L63.5639,46.13461,85.239,38.71225C74.52582,35.04105,52.03332,27.33334,47.2038,25.67856c-3.65729-1.29639-4.0824-3.12879-4.0824-4.394,0-1.26532.42511-3.09778,4.0824-4.39417C52.33362,15.13278,77.389,6.54678,87.09247,3.22165A68.03093,68.03093,0,0,0,39.98175,7.20688a10.89614,10.89614,0,0,0-1.18951,2.8194A40.235,40.235,0,0,0,37.24414,20.12332ZM98.98529,27.456c-.73731-2.7276-2.6051-5.99615-7.86365-7.80041L74.2135,13.86392l-21.675,7.42237c10.7132,3.6712,33.20563,11.3789,38.03522,13.03363,3.65722,1.29638,4.08233,3.12884,4.08233,4.394,0,1.26532-.42511,3.09778-4.08233,4.39416C84.2279,45.28238,47.39056,57.90579,46.84228,58.09366c-5.26165,1.80426-6.8197,4.84668-7.78527,7.50244a29.02337,29.02337,0,0,0-.82215,16.10138c2.09363-5.63947,5.40961-7.51489,9.127-8.9361l43.7597-14.98871c5.25867-1.80444,7.12634-5.07281,7.86365-7.80041a40.23271,40.23271,0,0,0,1.54809-10.097c.00965-.2901.01953-1.16125.01953-1.16125s-.00988-.87085-.01953-1.16113A40.23091,40.23091,0,0,0,98.98529,27.456Z"/><path class="cls-3" d="M98.48511,60.9263a29.09448,29.09448,0,0,1-1.64887,9.47186,10.01727,10.01727,0,0,1-6.77057,6.56226c-.547.18744-37.20587,12.74322-43.55163,14.91742-4.18689,1.48382-5.52253,3.93255-5.52234,6.40954-.00019,2.47705,1.33545,4.92579,5.52234,6.40961,4.079,1.39752,20.68365,7.085,32.17047,11.01935L63.572,120.89511c-8.53479-2.92218-15.6759-5.3678-15.9118-5.44873a10.017,10.017,0,0,1-6.7707-6.56207,29.09366,29.09366,0,0,1-1.64886-9.47174c-.00946-.28119-.01953-1.12519-.01953-1.12519s.01007-.844.01953-1.12512a29.093,29.093,0,0,1,1.64886-9.47174,10.01711,10.01711,0,0,1,6.7707-6.56213c.547-.18775,38.12762-13.05371,44.47338-15.22785C94.14026,65.2131,97.335,63.52341,98.48511,60.9263ZM96.888,28.117a10.017,10.017,0,0,0-6.77069-6.56207c-.2359-.08093-7.37708-2.52655-15.91187-5.44873L59.09289,21.28494c11.48682,3.93433,28.0915,9.62183,32.17054,11.01935,4.18689,1.48383,5.52252,3.93256,5.52234,6.40961.00018,2.477-1.33545,4.92572-5.52234,6.40954-6.34577,2.1742-43.0047,14.73-43.5517,14.91742a10.01729,10.01729,0,0,0-6.77057,6.56226A29.09448,29.09448,0,0,0,39.2923,76.075c1.15008-2.59711,4.34484-4.2868,6.35156-4.97424,6.34576-2.17413,43.92639-15.0401,44.47339-15.22785A10.01707,10.01707,0,0,0,96.888,49.31076,29.09272,29.09272,0,0,0,98.53686,39.839c.00946-.28113.01954-1.12512.01954-1.12512s-.01008-.844-.01954-1.12519A29.09339,29.09339,0,0,0,96.888,28.117ZM40.88946,10.68777a29.0931,29.0931,0,0,0-1.64886,9.47175c-.00946.28112-.01953,1.12512-.01953,1.12512s.01007.844.01953,1.12518a29.09356,29.09356,0,0,0,1.64886,9.47174,10.017,10.017,0,0,0,6.7707,6.56207c.2359.08094,7.377,2.52662,15.9118,5.4488l15.11255-5.17878C67.19769,34.77933,50.59308,29.09177,46.514,27.69424c-4.18689-1.48382-5.52253-3.93255-5.52234-6.4096-.00019-2.477,1.33545-4.92572,5.52234-6.40955,4.6676-1.59924,25.73541-8.81518,36.76959-12.59448A68.20767,68.20767,0,0,0,47.15539,4.30893,9.91316,9.91316,0,0,0,40.88946,10.68777ZM96.888,126.31345a29.09282,29.09282,0,0,0,1.64886-9.47174c.00946-.28113.01954-1.12513.01954-1.12513s-.01008-.844-.01954-1.12518a29.0933,29.0933,0,0,0-1.64886-9.47174,10.017,10.017,0,0,0-6.77069-6.56207c-.2359-.08094-7.37708-2.52655-15.91187-5.44873L59.09289,98.28763c11.48682,3.93432,28.0915,9.62182,32.17054,11.01935,4.18689,1.48382,5.52252,3.93255,5.52234,6.4096.00018,2.477-1.33545,4.92572-5.52234,6.40955-4.6673,1.59912-25.73273,8.81421-36.76752,12.59375a68.206,68.206,0,0,0,36.15869-2.04A9.90674,9.90674,0,0,0,96.888,126.31345Z"/></svg>